REM MD5 2b77d766279037b9fd704acd64203748
FILE "Frenzy! (Europe).bin" BINARY
  TRACK 01 MODE2/2352
    INDEX 01 00:00:00
  TRACK 02 AUDIO
    INDEX 00 07:27:25
    INDEX 01 07:29:25
  TRACK 03 AUDIO
    INDEX 00 07:48:49
    INDEX 01 07:50:49
  TRACK 04 AUDIO
    INDEX 00 08:10:14
    INDEX 01 08:12:14
  TRACK 05 AUDIO
    INDEX 00 08:34:61
    INDEX 01 08:36:61
  TRACK 06 AUDIO
    INDEX 00 08:58:12
    INDEX 01 09:00:12
  TRACK 07 AUDIO
    INDEX 00 09:23:65
    INDEX 01 09:25:65
  TRACK 08 AUDIO
    INDEX 00 09:49:28
    INDEX 01 09:51:28
  TRACK 09 AUDIO
    INDEX 00 10:14:51
    INDEX 01 10:16:51
  TRACK 10 AUDIO
    INDEX 00 10:36:59
    INDEX 01 10:38:59
  TRACK 11 AUDIO
    INDEX 00 11:00:07
    INDEX 01 11:02:07
  TRACK 12 AUDIO
    INDEX 00 11:22:00
    INDEX 01 11:24:00
  TRACK 13 AUDIO
    INDEX 00 11:45:25
    INDEX 01 11:47:25
  TRACK 14 AUDIO
    INDEX 00 12:11:30
    INDEX 01 12:13:30
  TRACK 15 AUDIO
    INDEX 00 12:37:18
    INDEX 01 12:39:18
  TRACK 16 AUDIO
    INDEX 00 13:02:09
    INDEX 01 13:04:09
  TRACK 17 AUDIO
    INDEX 00 13:29:33
    INDEX 01 13:31:33
  TRACK 18 AUDIO
    INDEX 00 13:58:53
    INDEX 01 14:00:53
  TRACK 19 AUDIO
    INDEX 00 14:21:37
    INDEX 01 14:23:37
  TRACK 20 AUDIO
    INDEX 00 14:41:25
    INDEX 01 14:43:25
  TRACK 21 AUDIO
    INDEX 00 15:08:01
    INDEX 01 15:10:01
  TRACK 22 AUDIO
    INDEX 00 15:21:41
    INDEX 01 15:23:41
  TRACK 23 AUDIO
    INDEX 00 15:46:52
    INDEX 01 15:48:52
  TRACK 24 AUDIO
    INDEX 00 16:11:31
    INDEX 01 16:13:31
  TRACK 25 AUDIO
    INDEX 00 16:39:10
    INDEX 01 16:41:10
  TRACK 26 AUDIO
    INDEX 00 17:11:27
    INDEX 01 17:13:27
  TRACK 27 AUDIO
    INDEX 00 17:51:02
    INDEX 01 17:53:02
  TRACK 28 AUDIO
    INDEX 00 18:26:60
    INDEX 01 18:28:60
  TRACK 29 AUDIO
    INDEX 00 19:04:38
    INDEX 01 19:06:38
  TRACK 30 AUDIO
    INDEX 00 19:32:66
    INDEX 01 19:34:66
  TRACK 31 AUDIO
    INDEX 00 20:02:14
    INDEX 01 20:04:14
  TRACK 32 AUDIO
    INDEX 00 20:21:10
    INDEX 01 20:23:10
  TRACK 33 AUDIO
    INDEX 00 20:42:19
    INDEX 01 20:44:19
  TRACK 34 AUDIO
    INDEX 00 21:09:61
    INDEX 01 21:11:61
  TRACK 35 AUDIO
    INDEX 00 21:37:01
    INDEX 01 21:39:01
  TRACK 36 AUDIO
    INDEX 00 22:06:19
    INDEX 01 22:08:19
  TRACK 37 AUDIO
    INDEX 00 22:36:65
    INDEX 01 22:38:65
  TRACK 38 AUDIO
    INDEX 00 23:04:49
    INDEX 01 23:06:49
  TRACK 39 AUDIO
    INDEX 00 23:35:40
    INDEX 01 23:37:40
  TRACK 40 AUDIO
    INDEX 00 24:00:22
    INDEX 01 24:02:22
  TRACK 41 AUDIO
    INDEX 00 24:28:05
    INDEX 01 24:30:05
  TRACK 42 AUDIO
    INDEX 00 24:45:66
    INDEX 01 24:47:66
  TRACK 43 AUDIO
    INDEX 00 25:14:23
    INDEX 01 25:16:23
  TRACK 44 AUDIO
    INDEX 00 25:42:54
    INDEX 01 25:44:54
  TRACK 45 AUDIO
    INDEX 00 26:14:12
    INDEX 01 26:16:12
  TRACK 46 AUDIO
    INDEX 00 26:42:56
    INDEX 01 26:44:56
  TRACK 47 AUDIO
    INDEX 00 27:12:35
    INDEX 01 27:14:35
  TRACK 48 AUDIO
    INDEX 00 27:40:15
    INDEX 01 27:42:15
  TRACK 49 AUDIO
    INDEX 00 28:12:03
    INDEX 01 28:14:03
  TRACK 50 AUDIO
    INDEX 00 28:38:33
    INDEX 01 28:40:33
  TRACK 51 AUDIO
    INDEX 00 29:05:38
    INDEX 01 29:07:38
  TRACK 52 AUDIO
    INDEX 00 29:26:58
    INDEX 01 29:28:58
  TRACK 53 AUDIO
    INDEX 00 30:10:21
    INDEX 01 30:12:21
  TRACK 54 AUDIO
    INDEX 00 30:55:33
    INDEX 01 30:57:33
  TRACK 55 AUDIO
    INDEX 00 31:40:32
    INDEX 01 31:42:32
  TRACK 56 AUDIO
    INDEX 00 32:27:35
    INDEX 01 32:29:35
  TRACK 57 AUDIO
    INDEX 00 33:40:46
    INDEX 01 33:42:46
  TRACK 58 AUDIO
    INDEX 00 34:18:08
    INDEX 01 34:20:08
  TRACK 59 AUDIO
    INDEX 00 34:55:25
    INDEX 01 34:57:25
  TRACK 60 AUDIO
    INDEX 00 36:24:31
    INDEX 01 36:26:31
  TRACK 61 AUDIO
    INDEX 00 37:13:46
    INDEX 01 37:15:46
  TRACK 62 AUDIO
    INDEX 00 40:02:50
    INDEX 01 40:04:50
  TRACK 63 AUDIO
    INDEX 00 42:00:06
    INDEX 01 42:02:06
  TRACK 64 AUDIO
    INDEX 00 42:32:53
    INDEX 01 42:34:53
  TRACK 65 AUDIO
    INDEX 00 43:44:72
    INDEX 01 43:46:72
  TRACK 66 AUDIO
    INDEX 00 44:25:60
    INDEX 01 44:27:60
  TRACK 67 AUDIO
    INDEX 00 44:33:39
    INDEX 01 44:35:39
  TRACK 68 AUDIO
    INDEX 00 45:35:17
    INDEX 01 45:37:17
REM LEADOUT 48:47:54
